General
      Complete name : The.Evil.Dead.1981.HDTVRip.H264.AAC.5.1ch.Gopo.mp4
      Format : MPEG-4
      Format profile : Base Media
      Codec ID : isom
      File size : 1.25 GiB
      Duration : 1h 25mn
      Overall bit rate : 2 103 Kbps
      Encoded date : UTC 2010-01-28 13:35:30
      Tagged date : UTC 2010-01-28 13:35:30
   Video #1
      ID : 1
      Format : AVC
      Format/Info : Advanced Video Codec
      Format profile : High@L4.1
      Format settings, CABAC : Yes
      Format settings, ReFrames : 5 frames
      Codec ID : avc1
      Codec ID/Info : Advanced Video Coding
      Duration : 1h 25mn
      Bit rate mode : Variable
      Bit rate : 1 831 Kbps
      Maximum bit rate : 6 491 Kbps
      Width : 1 280 pixels
      Height : 720 pixels
      Display aspect ratio : 16:9
      Frame rate mode : Constant
      Frame rate : 23.976 fps
      Resolution : 24 bits
      Colorimetry : 4:2:0
      Scan type : Progressive
      Bits/(Pixel*Frame) : 0.083
      Stream size : 1.09 GiB (87%)
      Writing library : x264 core 80 r1376M 3feaec2
      Encoding settings : cabac=1 / ref=5 / deblock=1:0:0 / analyse=0x3:0x113 / me=hex / subme=7 / psy=1 / psy_rd=1.0:0.0 / mixed_ref=1 / me_range=16 / chroma_me=1 / trellis=0 / 8x8dct=1 / cqm=0 / deadzone=21,11 / fast_pskip=1 / chroma_qp_offset=-2 / threads=3 / sliced_threads=0 / nr=0 / decimate=1 / mbaff=0 / constrained_intra=0 / bframes=3 / b_pyramid=0 / b_adapt=1 / b_bias=0 / direct=1 / wpredb=1 / wpredp=2 / keyint=250 / keyint_min=25 / scenecut=40 / rc_lookahead=40 / rc=2pass / mbtree=1 / bitrate=1831 / ratetol=1.0 / qcomp=0.60 / qpmin=10 / qpmax=51 / qpstep=4 / cplxblur=20.0 / qblur=0.5 / vbv_maxrate=31250 / vbv_bufsize=31250 / ip_ratio=1.40 / aq=1:1.00
      Encoded date : UTC 2010-01-28 02:00:27
      Tagged date : UTC 2010-01-28 13:37:41
   Audio #2
      ID : 2
      Format : AAC
      Format/Info : Advanced Audio Codec
      Format version : Version 4
      Format profile : LC
      Format settings, SBR : No
      Codec ID : 40
      Duration : 1h 25mn
      Bit rate mode : Variable
      Bit rate : 270 Kbps
      Maximum bit rate : 364 Kbps
      Channel(s) : 6 channels
      Channel positions : Front: L C R, Rear: L R, LFE
      Sampling rate : 48.0 KHz
      Resolution : 16 bits
      Stream size : 165 MiB (13%)
      Encoded date : UTC 2010-01-28 13:37:15
      Tagged date : UTC 2010-01-28 13:37:41
	Sample : YES
	Subtitle : English,Romanian

PLOT
Five friends travel to a cabin in the woods, where they unknowingly release flesh-possessing demons.
Director: Sam Raimi
CASTING 
     
      Bruce Campbell	... 	Ashley 'Ash' J. Williams
	Ellen Sandweiss	... 	Cheryl
	Richard DeManincor	... 	Scott (as Hal Delrich)
	Betsy Baker	... 	Linda
	Theresa Tilly	... 	Shelly (as Sarah York)
	Philip A. Gillis	... 	Fake Shemp (as Phil Gillis)
	Dorothy Tapert	... 	Fake Shemp
	Cheryl Guttridge	... 	Fake Shemp
	Barbara Carey	... 	Fake Shemp
	David Horton	... 	Fake Shemp
	Wendall Thomas	... 	Fake Shemp
	Don Long	... 	Fake Shemp
	Stu Smith	... 	Fake Shemp
	Kurt Rauf	... 	Fake Shemp
	Ted Raimi	... 	Fake Shemp

SOURCE: T.E.D.1981.haiz2.mkv

----------

   General
      Complete name : Evil.Dead.II.Dead.by.Dawn.1987.BRRip.H264.AAC.5.1ch.Gopo.mp4
      Format : MPEG-4
      Format profile : Base Media
      Codec ID : isom
      File size : 1.25 GiB
      Duration : 1h 24mn
      Overall bit rate : 2 132 Kbps
      Encoded date : UTC 2010-01-28 23:53:00
      Tagged date : UTC 2010-01-28 23:53:00
   Video #1
      ID : 1
      Format : AVC
      Format/Info : Advanced Video Codec
      Codec ID : avc1
      Codec ID/Info : Advanced Video Coding
      Duration : 1h 24mn
      Bit rate mode : Variable
      Bit rate : 1 842 Kbps
      Maximum bit rate : 8 674 Kbps
      Width : 1 280 pixels
      Height : 696 pixels
      Display aspect ratio : 16:9
      Frame rate mode : Constant
      Frame rate : 23.976 fps
      Bits/(Pixel*Frame) : 0.086
      Stream size : 1.08 GiB (86%)
      Encoded date : UTC 2010-01-28 16:02:13
      Tagged date : UTC 2010-01-28 23:55:10
   Audio #2
      ID : 2
      Format : AAC
      Format/Info : Advanced Audio Codec
      Format version : Version 4
      Format profile : LC
      Format settings, SBR : No
      Codec ID : 40
      Duration : 1h 24mn
      Bit rate mode : Variable
      Bit rate : 288 Kbps
      Maximum bit rate : 378 Kbps
      Channel(s) : 6 channels
      Channel positions : Front: L C R, Rear: L R, LFE
      Sampling rate : 48.0 KHz
      Resolution : 16 bits
      Stream size : 173 MiB (13%)
      Encoded date : UTC 2010-01-28 23:54:52
      Tagged date : UTC 2010-01-28 23:55:10
	Sample : YES
	Subtitle : English,Romanian

PLOT
The lone survivor of an onslaught of flesh-possessing spirits holds up in a cabin with a group of strangers while the demons continue their attack.
Director: Sam Raimi
CASTING 
     
      Bruce Campbell	... 	Ashley 'Ash' J. Williams
	Sarah Berry	... 	Annie Knowby
	Dan Hicks	... 	Jake
	Kassie Wesley DePaiva	... 	Bobbie Joe (as Kassie Wesley)
	Ted Raimi	... 	Possessed Henrietta (as Theodore Raimi)
	Denise Bixler	... 	Linda
	Richard Domeier	... 	Ed Getley
	John Peakes	... 	Professor Raymond Knowby
	Lou Hancock	... 	Henrietta Knowby
	Snowy Winters	... 	Dancer (dance sequence)
	Sid Abrams	... 	Fake Shemp
	Josh Becker	... 	Fake Shemp
	Scott Spiegel	... 	Fake Shemp
	Thomas Kidd	... 	Fake Shemp
	Mitch Cantor	... 	Fake Shemp

SOURCE: Evil.Dead.II.Dead.by.Dawn.1987.720p.BluRay.DTS.x264-CtrlHD.mkv

----------

   General
      Complete name : Army.of.Darkness.1992..BRRip.H264.AAC.5.1ch.Gopo.mp4
      Format : MPEG-4
      Format profile : Base Media
      Codec ID : isom
      File size : 1.25 GiB
      Duration : 1h 20mn
      Overall bit rate : 2 224 Kbps
      Encoded date : UTC 2010-01-28 14:43:19
      Tagged date : UTC 2010-01-28 14:43:19
   Video #1
      ID : 1
      Format : AVC
      Format/Info : Advanced Video Codec
      Format profile : High@L4.1
      Format settings, CABAC : Yes
      Format settings, ReFrames : 5 frames
      Codec ID : avc1
      Codec ID/Info : Advanced Video Coding
      Duration : 1h 20mn
      Bit rate mode : Variable
      Bit rate : 1 902 Kbps
      Maximum bit rate : 8 969 Kbps
      Width : 1 280 pixels
      Height : 688 pixels
      Display aspect ratio : 1.860
      Frame rate mode : Constant
      Frame rate : 23.976 fps
      Resolution : 24 bits
      Colorimetry : 4:2:0
      Scan type : Progressive
      Bits/(Pixel*Frame) : 0.090
      Stream size : 1.07 GiB (85%)
      Writing library : x264 core 83 r1391 3d0f110
      Encoding settings : cabac=1 / ref=5 / deblock=1:0:0 / analyse=0x3:0x113 / me=umh / subme=7 / psy=1 / psy_rd=1.0:0.0 / mixed_ref=1 / me_range=16 / chroma_me=1 / trellis=2 / 8x8dct=1 / cqm=0 / deadzone=21,11 / fast_pskip=1 / chroma_qp_offset=-2 / threads=1 / sliced_threads=0 / nr=0 / decimate=1 / mbaff=0 / constrained_intra=0 / bframes=3 / b_pyramid=0 / b_adapt=2 / b_bias=0 / direct=3 / wpredb=1 / wpredp=2 / keyint=250 / keyint_min=25 / scenecut=40 / intra_refresh=0 / rc_lookahead=30 / rc=2pass / mbtree=1 / bitrate=1902 / ratetol=1.0 / qcomp=0.50 / qpmin=10 / qpmax=51 / qpstep=4 / cplxblur=20.0 / qblur=0.5 / vbv_maxrate=24000 / vbv_bufsize=24000 / ip_ratio=1.10 / aq=1:1.00
      Encoded date : UTC 2010-01-27 04:38:33
      Tagged date : UTC 2010-01-28 14:45:29
   Audio #2
      ID : 2
      Format : AAC
      Format/Info : Advanced Audio Codec
      Format version : Version 4
      Format profile : LC
      Format settings, SBR : No
      Codec ID : 40
      Duration : 1h 20mn
      Bit rate mode : Variable
      Bit rate : 319 Kbps
      Maximum bit rate : 360 Kbps
      Channel(s) : 6 channels
      Channel positions : Front: L C R, Rear: L R, LFE
      Sampling rate : 48.0 KHz
      Resolution : 16 bits
      Stream size : 184 MiB (14%)
      Encoded date : UTC 2010-01-28 14:45:18
      Tagged date : UTC 2010-01-28 14:45:29
	Sample : YES
	Subtitle : English,Romanian

PLOT
A man is accidentally transported to 1300 A.D., where he must battle an army of the dead and retrieve the Necronomicon so he can return home.
Director: Sam Raimi
CASTING 
     
      Bruce Campbell	... 	Ash
	Embeth Davidtz	... 	Sheila
	Marcus Gilbert	... 	Lord Arthur
	Ian Abercrombie	... 	Wiseman
	Richard Grove	... 	Duke Henry the Red
	Timothy Patrick Quill	... 	Blacksmith
	Michael Earl Reid	... 	Gold Tooth
	Bridget Fonda	... 	Linda
	Patricia Tallman	... 	Possessed Witch
	Ted Raimi	... 	Cowardly Warrior / Second Supportive Villager / S-Mart Clerk (as Theodore Raimi)
	Deke Anderson	... 	Mini-Ash #2
	Bruce Thomas	... 	Mini-Ash #3
	Sara Shearer	... 	Old Woman
	Shiva Gordon	... 	Pit Deadite #1
	Billy Bryan	... 	Pit Bitch

SOURCE: Army.of.Darkness.1992.720p.BluRay.DTS.x264.RO.Subbed-Andy.mkv

This is 81-minute U.S. theatrical version, the only blu ray available at this time on the internet.

DIFFERENT VERSION:

There are four different versions of Army of Darkness: the 96-minute director's cut, the 81-minute U.S. theatrical version, the 88-minute international edit, and the 88-minute U.S. television version. The director's cut includes numerous new scenes and extensions compared to the US theatrical version. Among the changes are more violence in the pit, a love scene between Ash and Sheila, an extended windmill scene, different dialogue between Good and Bad Ash, an extended speech on the castle roof and a vastly different ending. The TV version (which is not available on DVD) is particularly notable for including two scenes not in any other version of the film (though they do appear in rough cut form in the "Deleted Scenes" section of the DVD.)

The theatrical release picks up after Ash has returned to the present, in which he stages one final confrontation with the "she-bitch" in the S-Mart Housewares Department. The alternative ending, which was favored by Raimi and Bruce Campbell, depicts Ash as he sits in his Oldsmobile (the same 1973 Oldsmobile featured in many Sam Raimi films), in a cave, the entrance caved in by some of the black powder he made earlier. As he drinks the magic potion (given to him by a person that may or may not be Merlin - the king's name being "Arthur"), he is distracted by a falling rock and takes one drop too many. Ash sleeps well beyond his time, not ageing but growing a very large beard, and shouts "I'VE SLEPT TOO LONG!" after awakening in a post-apocalyptic England.

When test audiences didn't approve of Raimi's original ending, he cut the film down to the international cut that now exists on DVD. When it was again rejected by Universal, Raimi was forced to edit it again to the U.S. theatrical version. The original cut had an opening that was more in tune with the Evil Dead series (included as a deleted scene on Anchor Bay's director's cut DVD).

The MGM Hong Kong Region 3 DVD edits together the U.S. altered theatrical, European and director's cuts into a final, 96-minute cut of the film. The film is digitally re-mastered, compiled from original source prints (not from VHS sources as the Anchor Bay Entertainment releases are). A new Blu-ray release of Army of Darkness from Optimum Releasing in the UK was rumored to be of the director's cut, however it was released on September 19, 2008 and included the Directors Cut as an extra, in standard definition. The movie was released as Bruce Campbell vs Army Of Darkness for the UK Bluray release

----------

   General
      Complete name : Army.of.Darkness.MGM.Director's.Cut.1992.DVDRip.H264.AAC.5.1ch.Gopo.mp4
      Format : MPEG-4
      Format profile : Base Media
      Codec ID : isom
      File size : 1.32 GiB
      Duration : 1h 36mn
      Overall bit rate : 1 968 Kbps
      Encoded date : UTC 2010-01-30 22:41:21
      Tagged date : UTC 2010-01-30 22:41:21
   Video #1
      ID : 1
      Format : AVC
      Format/Info : Advanced Video Codec
      Format profile : High@L4.1
      Format settings, CABAC : Yes
      Format settings, ReFrames : 5 frames
      Codec ID : avc1
      Codec ID/Info : Advanced Video Coding
      Duration : 1h 36mn
      Bit rate mode : Variable
      Bit rate : 1 334 Kbps
      Maximum bit rate : 4 359 Kbps
      Width : 720 pixels
      Height : 384 pixels
      Display aspect ratio : 1.875
      Frame rate mode : Constant
      Frame rate : 23.976 fps
      Resolution : 24 bits
      Colorimetry : 4:2:0
      Scan type : Progressive
      Bits/(Pixel*Frame) : 0.201
      Stream size : 919 MiB (68%)
      Writing library : x264 core 84 r1416 fcf70c2
      Encoding settings : cabac=1 / ref=5 / deblock=1:0:0 / analyse=0x3:0x113 / me=hex / subme=7 / psy=1 / psy_rd=1.0:0.0 / mixed_ref=1 / me_range=16 / chroma_me=1 / trellis=0 / 8x8dct=1 / cqm=0 / deadzone=21,11 / fast_pskip=1 / chroma_qp_offset=-2 / threads=3 / sliced_threads=0 / nr=0 / decimate=1 / mbaff=0 / constrained_intra=0 / bframes=3 / b_pyramid=0 / b_adapt=1 / b_bias=0 / direct=1 / wpredb=1 / wpredp=2 / keyint=250 / keyint_min=25 / scenecut=40 / intra_refresh=0 / rc_lookahead=40 / rc=2pass / mbtree=1 / bitrate=1334 / ratetol=1.0 / qcomp=0.60 / qpmin=10 / qpmax=51 / qpstep=4 / cplxblur=20.0 / qblur=0.5 / vbv_maxrate=31250 / vbv_bufsize=31250 / ip_ratio=1.40 / aq=1:1.00
      Encoded date : UTC 2010-01-30 15:30:18
      Tagged date : UTC 2010-01-30 22:45:49
   Audio #2
      ID : 2
      Format : AAC
      Format/Info : Advanced Audio Codec
      Format version : Version 4
      Format profile : LC
      Format settings, SBR : No
      Codec ID : 40
      Duration : 1h 36mn
      Bit rate mode : Variable
      Bit rate : 334 Kbps
      Maximum bit rate : 415 Kbps
      Channel(s) : 6 channels
      Channel positions : Front: L C R, Rear: L R, LFE
      Sampling rate : 48.0 KHz
      Resolution : 16 bits
      Stream size : 230 MiB (17%)
      Encoded date : UTC 2010-01-30 22:45:04
      Tagged date : UTC 2010-01-30 22:45:49
   Audio #3
      ID : 3
      Format : AAC
      Format/Info : Advanced Audio Codec
      Format version : Version 4
      Format profile : LC
      Format settings, SBR : No
      Codec ID : 40
      Duration : 1h 36mn
      Bit rate mode : Variable
      Bit rate : 295 Kbps
      Maximum bit rate : 413 Kbps
      Channel(s) : 2 channels
      Channel positions : L R
      Sampling rate : 48.0 KHz
      Resolution : 16 bits
      Stream size : 203 MiB (15%)
      Encoded date : UTC 2010-01-30 22:45:28
      Tagged date : UTC 2010-01-30 22:45:49
	Sample : YES
	Subtitle : English

This is the Rare Edition of Army of Darkness ripped from DVD source(Army of Darkness R3 Uncut Rare MGM Untouched) that no other copy can match the quality of this source.
This is the director's cut + an additional 2 seconds shot of Evil Ash stripping Sheila.
This edition compiled from ORIGINAL source prints and not from a VHS source, as Anchor Bay releases are.
Disc is coded R3/R4.

Compare how this DVD is better then the rest here
 
http://www.dvdbeaver.com/film/dvdcompare/army.htm

Audio commentary with director Sam Raimi, actor Bruce Campbell and co-writer Ivan Raimi
Extras:
Deleted scenes (with optional commentary by Sam Raimi and Bruce Campbell):
Original Opening (3:03)
Ash Confronts Arthur (2:05)
Original Windmill Scene (6:20)
Ash Recruits Henry the Red (2:57)
Alternate ending (10:15)
Production stills
Theatrical trailer (2:01)

SEED AND CHEERS!
Notes: For best performance I suggest you to use KMPlayer(find it with google) for playback
I haven't tested the movies on a PS3 or Xbox or other devices than PC because I don't own one of them but feel free to test them if you have the oportunity.
